<svg id="Kali_site_Blue_1_" enable-background="new 0 0 234.72 144" version="1.1" viewBox="0 0 1100 450" xmlns="http://www.w3.org/2000/svg"><defs><filter id="a" x="-.057299" y="-.096849" width="1.1146" height="1.1937" style="color-interpolation-filters:sRGB"><feGaussianBlur stdDeviation="8.9351949"/></filter><filter id="b" x="-.062769" y="-.084414" width="1.1255" height="1.1688" style="color-interpolation-filters:sRGB"><feGaussianBlur stdDeviation="6.580259"/></filter></defs><path transform="matrix(.96164 0 0 .96164 504.59 -17.344)" d="m81.17 145.29c-5.2331 0.0408-9.8259 3.3438-11.564 8.2637-0.56825 1.5996-0.73438 3.2187-0.73438 4.8965v164.92c0.19351 6.8719 5.5697 12.231 12.379 12.248 14.273 0.0189 43.666-0.0508 43.666-0.0508l-0.0527-12.764h-42.871c-0.22753-1.371-0.17072-162.77 0.05078-163.51 1.3133-0.18331 346.9-0.11711 347.66 0.0606 0.209 1.2448 0.14852 162.66-0.0801 163.51h-289.02v12.766s1.1283-1e-3 1.6445 0.0176h288.62c5.1761-0.0514 9.763-3.2979 11.527-8.1777 0.5682-1.5544 0.73047-3.1562 0.73047-4.7949v-165.23c-0.1088-5.4584-3.823-10.252-9.0781-11.703h-0.0176c-1.3916-0.37228-2.779-0.43945-4.2168-0.43945zm160.93 48.426c-0.10811 0.2075-0.1858 0.35815-0.22852 0.5-11.713 31.409-23.414 62.832-35.123 94.236-0.0514 0.0514-0.0508 0.14852-0.0508 0.20899v0.0996c0 0.0408 0.0514 0.0602 0.0605 0.10742h16.078l0.0293 6e-3c0.12396-0.35829 0.26691-0.66657 0.375-1 2.4896-7.073 4.9821-14.134 7.4785-21.213 0.41529-1.1378 0.82782-2.2814 1.2031-3.4238 0.14854-0.4769 0.39164-0.72641 0.89453-0.66601 0.1629 0.0189 0.35207 0 0.51757 0h35.145c3.1769 8.8018 6.3315 17.54 9.4746 26.279h16.451c-11.868-31.798-23.685-63.47-35.48-95.135zm-61.836 0.32031c-0.91684 0-1.4947 0.26694-2.0996 0.97851-12.25 14.507-24.53 29.016-36.809 43.506-0.16289 0.18556-0.37472 0.35157-0.72852 0.67774v-36.088c0-2.987 0.0514-5.9842 0-8.9727h-15.406v94.629c1.223 0.21468 14.605 0.1695 15.43-0.0527v-1.2031l-0.043-6e-3v-33.008c0-0.74445 0.21031-1.2683 0.81836-1.7402 2.5493-2.0159 5.0644-4.0885 7.5801-6.1465 0.25096-0.18633 0.49365-0.35168 0.80664-0.58008 0.27137 0.35074 0.50023 0.63776 0.71094 0.95313 4.2762 6.1693 8.5566 12.333 12.83 18.492 5.2437 7.5874 10.496 15.14 15.729 22.691 0.29065 0.43835 0.55681 0.76953 1.2012 0.76953 5.5098-0.0189 11.014-0.0176 16.518-0.0176 0.18218 0 0.36992-0.0612 0.66016-0.12695-12.185-17.746-24.32-35.37-36.492-53.1 2.4488-2.8427 4.8172-5.5772 7.1836-8.3809 2.3725-2.7449 4.7368-5.4997 7.1055-8.2637 2.3651-2.757 4.7127-5.5175 7.084-8.2774 2.3664-2.7662 4.7366-5.5268 7.0762-8.2852 2.3558-2.7376 4.6943-5.4764 7.1914-8.4297h-1.3887c-4.9863 0-9.97 0.0296-14.957-0.0195zm124.84 0.0996c-0.25701 1.1832-0.19489 93.964 0.0508 94.742h55.42v-13.184h-26.734c-2.2474 0-4.5106 0.0189-6.748 0-2.2054-0.0189-4.4021 0.0815-6.6895-0.0508v-74.188l-0.0137-0.0137c0-2.4505 0.0907-4.8794-0.0703-7.3066zm66.014 0.0293v94.686h15.348c0.051-0.15912 0.0899-0.24422 0.0899-0.35156v-93.781l-8e-3 2e-3c0-0.14702 2.1e-4 -0.26933-0.0508-0.42187 0-0.0408-0.0527-0.051-0.0527-0.0801 0-0.0189-0.0605-0.0527-0.0605-0.0527zm-120.77 13.252c0.16291 0.24869 0.28976 0.40065 0.33399 0.56445 2.5735 9.6091 6.0907 18.932 9.2852 28.357 1.327 3.922 2.7018 7.8218 4.0527 11.746 0.1028 0.35112 0.20536 0.70253 0.33007 1.1367h-27.605c0.12319-0.40895 0.22823-0.76152 0.34765-1.1133 3.24-9.3819 6.5265-18.722 9.6836-28.129 1.2668-3.7807 2.2224-7.6812 3.3008-11.537 0.0911-0.29216 0.14864-0.58553 0.27148-1.0254zm-120.16 139.35c-2.9257 0-5.1805 0.85852-6.7539 2.5723-1.5795 1.7167-2.3711 4.1681-2.3711 7.3652 0 3.1975 0.78678 5.6649 2.3574 7.4024 1.5675 1.7358 3.8113 2.6016 6.7363 2.6016 2.8962 0 5.1286-0.87734 6.7051-2.6211 1.5792-1.7513 2.3691-4.1969 2.3691-7.3555 0-3.1615-0.78352-5.6142-2.3633-7.3535-1.5736-1.741-3.8004-2.6113-6.6797-2.6113zm97.432 0.0332c-1.9346 0-3.48 0.46586-4.6289 1.3887-1.1495 0.92791-1.7227 2.2036-1.7227 3.8164 0 1.2929 0.36394 2.3949 1.0918 3.3164 0.7214 0.91892 1.968 1.7317 3.7402 2.4473 1.7079 0.69018 2.8419 1.2844 3.3906 1.791 0.54609 0.50684 0.82031 1.1193 0.82031 1.8379 0 0.80402-0.29574 1.4464-0.89453 1.9258-0.59449 0.47489-1.5256 0.71485-2.7812 0.71485-0.85233 0-1.7828-0.1197-2.7754-0.35743-0.9975-0.23962-1.9316-0.56437-2.8144-0.98046v2.9941c1.3961 0.67514 3.1884 1.0215 5.377 1.0215 2.1945 0 3.9137-0.49489 5.1621-1.4727 1.2455-0.9773 1.8691-2.3296 1.8691-4.0508 0-0.88059-0.15791-1.6361-0.46484-2.2793-0.30501-0.64887-0.79554-1.2262-1.457-1.7402h6e-3c-0.66795-0.51306-1.7115-1.0665-3.127-1.6543-1.2696-0.52089-2.1464-0.94335-2.6289-1.2637-0.48949-0.31711-0.83557-0.65416-1.0449-1.0078-0.21732-0.36095-0.32422-0.79108-0.32422-1.2949 0-0.73146 0.26538-1.3253 0.79493-1.7656 0.52898-0.45241 1.3087-0.67187 2.3359-0.67187 1.348 0 2.8889 0.35864 4.6152 1.0859l1-2.5781c-1.83-0.81408-3.68-1.2226-5.5391-1.2226zm75.889 0c-1.9356 0-3.4752 0.46586-4.623 1.3887-1.1489 0.92791-1.7266 2.2036-1.7266 3.8164 0 1.2929 0.36383 2.3949 1.0898 3.3164 0.7214 0.91892 1.9667 1.7317 3.7402 2.4473 1.7128 0.69018 2.8414 1.2844 3.3906 1.791 0.54607 0.50684 0.82031 1.1193 0.82031 1.8379 0 0.80402-0.29726 1.4464-0.89257 1.9258-0.59554 0.47489-1.5258 0.71485-2.7832 0.71485-0.85137 0-1.7809-0.1197-2.7676-0.35743-1.0035-0.23962-1.9371-0.56437-2.8262-0.98046v2.9941c1.4019 0.67514 3.1931 1.0215 5.3848 1.0215 2.1918 0 3.9164-0.49489 5.1621-1.4727 1.2436-0.9773 1.8672-2.3296 1.8672-4.0508 0-0.88059-0.16179-1.636-0.46679-2.2793-0.31332-0.64887-0.79826-1.226-1.457-1.7402-0.66399-0.51306-1.7102-1.0665-3.1348-1.6543-1.2549-0.52089-2.1395-0.94335-2.6211-1.2637-0.48344-0.31711-0.83539-0.65416-1.0449-1.0078-0.20902-0.36095-0.31836-0.79108-0.31836-1.2949 0-0.73146 0.26348-1.3253 0.79687-1.7656 0.52891-0.45241 1.3091-0.67187 2.3301-0.67187 1.354 0 2.8933 0.35864 4.6191 1.0859l1-2.5781c-1.8319-0.81408-3.6828-1.2226-5.5391-1.2226zm38.439 0c-1.8828 0-3.5294 0.40072-4.9238 1.2051-1.3928 0.80297-2.4586 1.96-3.1973 3.4707-0.73848 1.5154-1.1074 3.2771-1.1074 5.2871 0 3.2004 0.76021 5.6551 2.2832 7.3691 1.5194 1.7232 3.7 2.582 6.5352 2.582 1.9224 0 3.6492-0.29314 5.1699-0.85742v-2.7227c-0.82808 0.2623-1.6309 0.47022-2.4004 0.63867-0.76574 0.16139-1.5673 0.24219-2.3867 0.24219-1.8965 0-3.3492-0.61219-4.3555-1.832-1.0015-1.2162-1.5039-3.0211-1.5039-5.3887 0-2.2758 0.52356-4.0469 1.5664-5.3418 1.0426-1.2928 2.4708-1.9336 4.2891-1.9336l2e-3 -2e-3c0.80198 0 1.5696 0.11194 2.3027 0.35156 0.72847 0.23282 1.4182 0.5062 2.0742 0.81446l1.1387-2.6348c-1.677-0.83324-3.5131-1.248-5.4863-1.248zm-251.03 0.27148 6.4258 11.967v7.4043h3.1836v-7.5117l6.457-11.859h-3.4492l-4.584 8.8418-4.5898-8.8418zm55.191 0v19.371l-2e-3 2e-3h3.1484v-7.9531h7.3027v-2.6875h-7.3027v-6.0547h7.791v-2.6777zm17.166 0v19.371l-2e-3 2e-3h3.1445v-7.9531h7.3027v-2.6875h-7.3027v-6.0547h7.7949v-2.6777zm17.164 0v19.373h10.963v-2.6895h-7.791v-6.0801h7.3027v-2.6524h-7.3027v-5.2754h7.791v-2.6758zm17.879 0v19.373h2.877v-10.066c0-1.3621-0.0719-2.863-0.18945-4.5059l-0.0606-0.85742h0.10156l9.5371 15.432h3.875v-19.371h-2.8984v10.15h-0.0117c0 0.71233 6.9e-4 1.705 0.0918 2.9844 0.0514 1.2794 0.0894 2.0193 0.0996 2.2207h-0.0703l-9.5098-15.359zm72.221 0v19.377h10.955v-2.6934h-7.7949v-6.0801h7.3105v-2.6504h-7.3105v-5.2754h7.7949v-2.6777zm45.271 0v19.377h10.963v-2.6934h-7.793v-6.0801h7.3008v-2.6504h-7.3008v-5.2754h7.793v-2.6777zm-242.97 2e-3v19.373h6.9961c2.1641 0 3.8561-0.48349 5.0742-1.4766 1.2136-0.98744 1.8184-2.35 1.8184-4.0879 0-1.2927-0.324-2.3124-0.96093-3.0684-0.64275-0.75969-1.6401-1.2629-2.998-1.5215v-0.13086c1.0947-0.19124 1.9364-0.66541 2.5215-1.4141 0.57732-0.74963 0.86914-1.6923 0.86914-2.8242 0-1.6777-0.59051-2.908-1.7812-3.6836-1.1872-0.77586-3.1204-1.166-5.7852-1.166zm167.09 2e-3v19.373h3.1699v-19.373zm8.4356 0 6.7617 19.373h3.3438l6.7871-19.373h-3.291l-4.0332 11.99c-0.15382 0.42618-0.34637 1.0839-0.58985 1.9648-0.23469 0.88055-0.41528 1.6622-0.52929 2.3281-0.0805-0.44017-0.22709-1.1111-0.46485-2.0176-0.24378-0.90674-0.46081-1.6449-0.68164-2.2207l-4.043-12.045zm105.07 0v12.484c0 2.2202 0.66552 3.9734 2 5.2441 1.3371 1.2752 3.2 1.9102 5.6035 1.9102 1.6169 0 3.0111-0.29289 4.1738-0.86719 1.1596-0.57628 2.047-1.4057 2.6621-2.4746 0.61663-1.0718 0.92188-2.3262 0.92188-3.7559v-12.539h-3.166v12.227l-2e-3 2e-3c0 3.1358-1.4903 4.707-4.4805 4.707-1.5352 0-2.6825-0.38505-3.4219-1.1426-0.74354-0.75567-1.1133-1.9342-1.1133-3.5352v-12.26zm43.096 0v19.373h3.168v-19.373zm8.8359 0v2.7207h5.6934v16.652h3.1641v-16.652h5.7051v-2.7207zm-28.9 2e-3v19.373h3.168v-7.7402h3.127l4.6348 7.7363h3.6113l-5.4726-8.5723c2.5119-1.0246 3.7623-2.7358 3.7637-5.1523v-4e-3c-8.6e-4 -1.886-0.60223-3.2942-1.7969-4.2363-1.2053-0.93192-3.0575-1.4043-5.5586-1.4043zm46.584 0 6.4316 11.967v7.4043h3.1816v-7.5117l6.457-11.859h-3.4473l-4.5859 8.8418-4.5879-8.8418zm-292.85 2.4121c1.8832 0 3.2929 0.60843 4.248 1.8398 0.94401 1.2267 1.4219 3.031 1.4219 5.4062 0 2.4098-0.47824 4.2232-1.4336 5.4395-0.96623 1.2207-2.3816 1.834-4.2676 1.834-1.8893 0-3.316-0.61722-4.2832-1.8496-0.95807-1.2312-1.4394-3.0412-1.4394-5.4238 0-2.3752 0.48355-4.1783 1.4551-5.4062 0.96419-1.2297 2.3993-1.8398 4.2988-1.8398zm-54.186 0.23047h2.7402c1.435 0 2.4763 0.20233 3.1426 0.61328 0.65495 0.40626 0.98047 1.0669 0.98047 1.9766 0 1.0055-0.30191 1.7128-0.91211 2.1367-0.60654 0.4153-1.5789 0.63086-2.9023 0.63086h-3.0488zm303.62 0.0352h2.0918c1.4423 0 2.5227 0.23916 3.2344 0.71289 0.7214 0.47935 1.0723 1.2655 1.0723 2.3613 0 1.0778-0.32408 1.8927-0.98828 2.4414-0.65849 0.54384-1.7349 0.82005-3.2109 0.82031h-2.1992zm-303.62 7.8885h3.2051c1.4064 0 2.4556 0.24468 3.1367 0.73243 0.69516 0.47939 1.0371 1.2326 1.0371 2.2383 0 1.0959-0.33016 1.8931-1.0117 2.4043v2e-3c-0.68002 0.50684-1.6745 0.76367-3.0039 0.76367h-3.3633z" style="clip-rule:evenodd;fill-rule:evenodd;filter:url(#a);opacity:.3;stroke-width:1.5037"/><path d="m921.98 122.8c-1.3382-0.358-2.6732-0.42376-4.0558-0.42376h-335.28c-5.0324 0.0392-9.4499 3.2165-11.121 7.9477-0.54645 1.5382-0.70535 3.0952-0.70535 4.7086v158.59c0.18608 6.6083 5.3563 11.762 11.904 11.778 13.726 0.0182 41.99-0.0494 41.99-0.0494l-0.0498-12.273h-41.227c-0.21879-1.3184-0.16319-156.53 0.0498-157.24 1.2629-0.17627 333.59-0.11266 334.33 0.0582 0.20098 1.197 0.1429 156.42-0.0769 157.24h-277.93v12.274s1.0847 0 1.5812 0.0182h277.55c4.9776-0.0494 9.3878-3.1718 11.084-7.8644 0.5464-1.4948 0.70345-3.0357 0.70345-4.6116v-158.89c-0.10463-5.249-3.677-9.8597-8.7306-11.255zm-282.17 136.33v-31.741c0-0.7159 0.20098-1.2186 0.78571-1.6725 2.4515-1.9386 4.87-3.9323 7.2891-5.9112 0.24133-0.17918 0.47597-0.33837 0.77696-0.55801 0.26096 0.33728 0.48044 0.61333 0.68307 0.9166 4.1122 5.9327 8.2275 11.859 12.337 17.782 5.0426 7.2964 10.093 14.559 15.126 21.822 0.2795 0.42154 0.53595 0.74116 1.1556 0.74116 5.2985-0.0182 10.592-0.0182 15.883-0.0182 0.17519 0 0.35546-0.0582 0.63456-0.12139-11.718-17.065-23.387-34.012-35.092-51.062 2.3549-2.7337 4.633-5.3646 6.9085-8.0607 2.2815-2.6396 4.5548-5.2883 6.8326-7.9462 2.2744-2.6513 4.5323-5.3068 6.8127-7.9608 2.2756-2.6601 4.5548-5.314 6.8046-7.9666 2.2654-2.6326 4.5145-5.2664 6.9159-8.1065h-1.335c-4.795 0-9.5876 0.029-14.383-0.0182-0.88167 0-1.4377 0.2555-2.0194 0.93978-11.78 13.951-23.589 27.903-35.396 41.837-0.15664 0.17844-0.36018 0.33837-0.70041 0.65203v-34.704c0-2.8724 0.0494-5.7535 0-8.6274h-14.815v90.998c1.1761 0.20645 14.045 0.16429 14.838-0.0494v-1.1578zm79.103 1.3171c0.11921-0.34454 0.25551-0.64047 0.35945-0.96111 2.3941-6.8017 4.7907-13.592 7.1914-20.399 0.39936-1.0942 0.79644-2.1944 1.1573-3.2931 0.14284-0.4586 0.37672-0.69855 0.86032-0.64047 0.15666 0.0182 0.33875 0 0.49791 0h33.796c3.055 8.4642 6.0889 16.867 9.1115 25.271h15.821c-11.413-30.578-22.777-61.036-34.12-91.485h-16.178c-0.10396 0.19954-0.18028 0.34492-0.22136 0.48133-11.264 30.204-22.515 60.421-33.775 90.621-0.0494 0.0494-0.0494 0.14285-0.0494 0.201v0.0967c0 0.0392 0.0494 0.0582 0.0582 0.10358h15.461zm13.677-39.202c3.1157-9.022 6.2758-18.004 9.3118-27.05 1.2182-3.6357 2.1365-7.3858 3.1736-11.094 0.0876-0.28095 0.14284-0.56293 0.26097-0.98588 0.15665 0.23916 0.27914 0.38502 0.32166 0.54254 2.4748 9.2405 5.8578 18.206 8.9297 27.27 1.2761 3.7716 2.5978 7.5202 3.897 11.294 0.0988 0.33765 0.19662 0.67538 0.31656 1.0929h-26.546c0.11848-0.39327 0.2188-0.7315 0.33365-1.0697zm80.106-44.876c0-2.3565 0.0868-4.6915-0.068-7.0256h-14.631c-0.24715 1.1378-0.18682 90.359 0.0494 91.107h53.293v-12.676h-25.708c-2.1612 0-4.3393 0.0182-6.491 0-2.1208-0.0182-4.2328 0.0778-6.4324-0.0494v-71.342zm63.619-6.4647c0-0.14139 0-0.25878-0.049-0.40547 0-0.0392-0.0491-0.0494-0.0491-0.0774 0-0.0182-0.0587-0.0494-0.0587-0.0494h-14.681v91.053h14.759c0.049-0.15301 0.0865-0.23443 0.0865-0.33765v-90.184z" style="clip-rule:evenodd;fill-rule:evenodd;fill:#fff;stroke-width:.96164"/><path d="m584.18 325.28v-0.1254c1.0527-0.1839 1.8613-0.6404 2.4239-1.3603 0.55518-0.72087 0.83523-1.6263 0.83523-2.7148 0-1.6134-0.56775-2.7973-1.7128-3.5432-1.1417-0.7461-3.0005-1.1219-5.5631-1.1219h-5.5325v18.63h6.7276c2.0811 0 3.7072-0.46489 4.8787-1.4199 1.167-0.94957 1.7501-2.2595 1.7501-3.9308 0-1.2431-0.31184-2.2233-0.92434-2.9503-0.61809-0.73056-1.5768-1.2144-2.8827-1.463zm-6.5037-6.3205h2.6355c1.38 0 2.3811 0.19481 3.0218 0.59 0.62983 0.39068 0.94281 1.0264 0.94281 1.9012 0 0.96693-0.29004 1.6479-0.87684 2.0556-0.58327 0.39937-1.5189 0.60654-2.7916 0.60654h-2.932zm6.1236 12.791c-0.65394 0.4874-1.6095 0.7344-2.888 0.7344h-3.2359v-5.9043h3.0823c1.3524 0 2.3622 0.23443 3.0172 0.70348 0.6685 0.461 0.99636 1.1855 0.99636 2.1526 0 1.0539-0.31657 1.8214-0.97203 2.3129zm15.939-6.8348-4.4123-8.5027h-3.3128l6.1798 11.509v7.1208h3.0609v-7.2244l6.21-11.404h-3.3167zm30.044-8.7949c-2.8135 0-4.9833 0.82545-6.4964 2.4734-1.5189 1.6508-2.2797 4.0089-2.2797 7.0834 0 3.0749 0.75766 5.446 2.268 7.1168 1.5074 1.6692 3.6651 2.5025 6.4779 2.5025 2.7851 0 4.9314-0.84295 6.4474-2.5198 1.5186-1.6841 2.2778-4.0362 2.2778-7.0736 0-3.0402-0.75283-5.3992-2.272-7.0717-1.5132-1.6742-3.6549-2.5112-6.4237-2.5112zm4.0751 14.818c-0.92917 1.1739-2.2901 1.7623-4.1038 1.7623-1.8168 0-3.1893-0.59305-4.1194-1.7782-0.92133-1.184-1.3843-2.9244-1.3843-5.2156 0-2.2841 0.4649-4.0176 1.3992-5.1986 0.92721-1.1825 2.3069-1.7694 4.1336-1.7694 1.811 0 3.1678 0.5852 4.0863 1.7694 0.9078 1.1796 1.3668 2.9144 1.3668 5.1986 0 2.3174-0.45959 4.062-1.3783 5.2315zm11.23 4.1045h3.0274v-7.6479h7.0223v-2.5833h-7.0223v-5.823h7.4912v-2.5746h-10.517v18.627zm16.507 0h3.025v-7.6479h7.0212v-2.5833h-7.0212v-5.823h7.4955v-2.5746h-10.518v18.627zm16.509 0h10.542v-2.5866h-7.4926v-5.8462h7.0223v-2.55h-7.0223v-5.0728h7.4926v-2.5746h-10.542zm29.916-8.865c0 0.68501 0 1.6408 0.0876 2.871 0.0494 1.2303 0.0868 1.9416 0.0967 2.1352h-0.068l-9.1446-14.77h-3.6945v18.63h2.7657v-9.6809c0-1.3098-0.068-2.7525-0.181-4.3324l-0.0582-0.82559h0.0967l9.1718 14.841h3.7266v-18.63h-2.787v9.7626zm19.225-0.0502c-0.64233-0.49338-1.6462-1.0249-3.0073-1.5902-1.2209-0.50091-2.0628-0.90783-2.5268-1.2159-0.47072-0.30495-0.80419-0.62878-1.0055-0.96886-0.20898-0.3471-0.3122-0.76155-0.3122-1.2461 0-0.7034 0.25624-1.2737 0.76547-1.6971 0.50869-0.43505 1.2568-0.64626 2.2447-0.64626 1.2963 0 2.7788 0.34456 4.4389 1.044l0.96202-2.4793c-1.7598-0.78285-3.5394-1.1753-5.3272-1.1753-1.8604 0-3.3458 0.44839-4.4505 1.3358-1.1054 0.89232-1.6576 2.1177-1.6576 3.6687 0 1.2433 0.34965 2.303 1.0495 3.1892 0.69373 0.88367 1.8937 1.6654 3.598 2.3534 1.6424 0.6637 2.732 1.2361 3.2597 1.7233 0.52515 0.4874 0.78971 1.0768 0.78971 1.7679 0 0.77318-0.28458 1.3907-0.86041 1.8517-0.57168 0.45668-1.468 0.68602-2.6756 0.68602-0.81964 0-1.7143-0.11413-2.6688-0.34274-0.95923-0.23043-1.8562-0.54358-2.7052-0.94371v2.8798c1.3426 0.64925 3.0663 0.98155 5.1708 0.98155 2.1103 0 3.7625-0.47508 4.963-1.4153 1.1977-0.93982 1.7981-2.2407 1.7981-3.8959 0-0.84681-0.15229-1.5731-0.44744-2.1916-0.29331-0.62398-0.7654-1.1782-1.4015-1.6725zm8.0643 8.9192h3.0487v-18.63h-3.0487zm17.314-7.0994c-0.14792 0.40983-0.33365 1.0422-0.56778 1.8894-0.2257 0.84677-0.39894 1.5988-0.50859 2.2393-0.0774-0.42329-0.2188-1.0684-0.44744-1.9401-0.23443-0.87196-0.44263-1.583-0.65499-2.1367l-3.8882-11.582h-3.1332l6.5008 18.629h3.2154l6.5284-18.629h-3.1648zm12.123 7.0994h10.536v-2.59h-7.4963v-5.8458h7.0296v-2.5501h-7.0296v-5.0728h7.4963v-2.5747h-10.536zm35.47-8.9192c-0.63852-0.49338-1.6446-1.0249-3.0146-1.5902-1.2068-0.50091-2.0567-0.90783-2.5198-1.2159-0.4649-0.30495-0.80415-0.62878-1.0057-0.96886-0.20099-0.3471-0.30495-0.76155-0.30495-1.2461 0-0.7034 0.25153-1.2737 0.76446-1.6971 0.50862-0.43505 1.2604-0.64626 2.2423-0.64626 1.3021 0 2.7814 0.34456 4.4411 1.044l0.96117-2.4793c-1.7616-0.78285-3.541-1.1753-5.3261-1.1753-1.8614 0-3.3423 0.44839-4.4462 1.3358-1.1048 0.89232-1.6603 2.1177-1.6603 3.6687 0 1.2433 0.35036 2.303 1.0486 3.1892 0.69373 0.88367 1.8906 1.6654 3.5961 2.3534 1.6471 0.6637 2.7336 1.2361 3.2617 1.7233 0.52512 0.4874 0.78772 1.0768 0.78772 1.7679 0 0.77318-0.28496 1.3907-0.85743 1.8517-0.5727 0.45668-1.4668 0.68602-2.676 0.68602-0.81871 0-1.7139-0.11413-2.6628-0.34274-0.96501-0.23043-1.8618-0.54358-2.7167-0.94371v2.8798c1.3481 0.64925 3.0709 0.98155 5.1786 0.98155 2.1077 0 3.765-0.47508 4.9629-1.4153 1.1959-0.93982 1.7956-2.2407 1.7956-3.8959 0-0.84681-0.15412-1.573-0.44742-2.1915-0.3013-0.62398-0.76834-1.1781-1.4019-1.6726zm8.0651 8.9192h10.542v-2.59h-7.4941v-5.8458h7.0223v-2.5501h-7.0223v-5.0728h7.4941v-2.5747h-10.542zm25.109-16.282c0.77122 0 1.5095 0.10759 2.2146 0.33802 0.70053 0.22389 1.3638 0.48644 1.9947 0.78288l1.0962-2.5341c-1.6127-0.80128-3.3791-1.1998-5.2766-1.1998-1.8106 0-3.3934 0.38589-4.7344 1.1594-1.3394 0.77217-2.3649 1.8837-3.0752 3.3364-0.71015 1.4573-1.0658 3.1515-1.0658 5.0844 0 3.0776 0.73251 5.4394 2.1971 7.0877 1.4611 1.6571 3.5566 2.4816 6.2831 2.4816 1.8487 0 3.5104-0.28096 4.9728-0.82359v-2.6175c-0.79632 0.25224-1.5696 0.45228-2.3097 0.61427-0.73637 0.1552-1.5064 0.23152-2.2944 0.23152-1.8238 0-3.2211-0.58909-4.1888-1.7621-0.96308-1.1696-1.445-2.9044-1.445-5.181 0-2.1885 0.50287-3.8915 1.5057-5.1367 1.0026-1.2432 2.3767-1.8604 4.1253-1.8604zm22.795 9.4128c0 3.0155-1.4336 4.5265-4.3091 4.5265-1.4763 0-2.5793-0.37021-3.2903-1.0987-0.71502-0.72668-1.0706-1.859-1.0706-3.3986v-11.79h-3.0565v12.006c0 2.135 0.64045 3.8206 1.9238 5.0426 1.2858 1.2263 3.078 1.8358 5.3893 1.8358 1.5549 0 2.8944-0.28094 4.0126-0.83321 1.1151-0.55418 1.9684-1.3515 2.56-2.3794 0.59298-1.0307 0.88655-2.2378 0.88655-3.6126v-12.058h-3.0435v11.759zm22.762-6.3314c0-1.8157-0.57833-3.1702-1.728-4.0769-1.1591-0.89617-2.9397-1.35-5.3449-1.35h-5.2665v18.63h3.0461v-7.4428h3.0074l4.456 7.4389h3.4733l-5.2636-8.2436c2.4169-0.98578 3.6202-2.6323 3.6202-4.9582zm-7.1775 3.241h-2.1164v-6.093h2.0109c1.387 0 2.4267 0.23043 3.1111 0.68598 0.69373 0.46097 1.0313 1.2157 1.0313 2.2696 0 1.0365-0.31186 1.8202-0.95059 2.3478-0.63353 0.52323-1.6663 0.7887-3.0868 0.7887zm14.131 9.9598h3.0473v-18.629h-3.0473zm8.498-16.012h5.4751v16.012h3.0429v-16.012h5.4853v-2.6167h-14.004v2.6167zm29.143-2.6152-4.4084 8.5027-4.4124-8.5027h-3.3182l6.1861 11.509v7.1201h3.0593v-7.2244l6.2104-11.404z" style="clip-rule:evenodd;fill-rule:evenodd;fill:#fff;stroke-width:.96164"/><path transform="matrix(1.9268 0 0 1.9268 -873.43 -341.33)" d="m603.05 230.43s-20.662-1.3748-55.846 9.6346c-35.856 11.219-56.192 27.122-56.192 27.122s53.443-29.839 113.76-31.535zm77.066 32.443 2.6862-0.17522s-15.389-18.672-44.846-27.767c16.558 6.7308 30.97 15.649 42.159 27.941zm4.3961 7.758c0.41303-0.71604 1.7462 2.2748 2.7584 3.5312 0.0424 0.25089 0.11332 0.40399-0.47286 0.28321-0.0488-0.25791-0.13358-0.33272-0.13358-0.33272s-1.4167-0.84302-1.8511-1.441c-0.43485-0.59799-0.5119-1.644-0.30008-2.0406zm36.15 88.882s3.267-37.507-55.662-46.155c-7.4689-1.0959-16.914-1.9393-26.468-1.9635-47.231 0.62447-48.953-54.475-13.362-57.257 14.75-1.217 32.362 6.7397 49.58 14.758-0.0644 2.1384 0.0239 4.0386 1.4293 5.7947 1.4046 1.7554 6.7998 3.6706 8.5236 4.6598 1.7239 0.98955 7.2468 4.5008 10.631 8.9058 0.73402-1.3729 6.8631-5.3625 6.8631-5.3625s-1.4683 0.032-4.8841-1.2447c-3.4164-1.2766-7.4701-5.1393-7.566-5.3625-0.095-0.22361-0.1598-0.57462 0.63894-0.73433 0.60598-0.51039-0.76679-2.1704-1.3734-2.7766-0.60617-0.60658-4.6607-7.5009-4.7562-7.6607-0.0951-0.15965-0.12749-0.31906-0.41498-0.51074-0.8941-0.28751-4.8205 0.4149-4.8205 0.4149s-6.0388-2.9659-8.1204-9.3604c0.0304 1.12-1.0355 2.3429 0 4.9161-3.1487-1.332-5.8533-3.6037-7.9862-9.2174-1.2697 3.1929 0 5.2231 0 5.2231s-7.4145-2.0718-8.6008-8.9097c-1.302 3.0695 0 4.9157 0 4.9157s-12.088-6.307-32.172-6.3984c-13.447-1.2334-16.246-24.888-15.001-28.87 0 0-19.395-10.222-57.574-14.738-38.179-4.5163-69.491-0.68058-69.491-0.68058s67.62-3.2451 121.79 18.686c1.8416 8.2365 7.3813 21.955 10.365 28.548-8.5376 5.9029-18.165 11.454-19.664 31.14-1.4986 19.686 15.426 37.002 36.415 37.536 19.93 1.0616 33.7 1.2124 50.39 9.8653 15.931 8.8087 28.993 35.65 30.286 59.79 1.3963-17.911-5.3252-56.427-36.69-68.122 43.838 7.6716 47.695 40.17 47.695 40.17zm-118.64-132.02-1.5774-5.0879s-26.027-4.622-61.022-2.1346-70.327 14.737-70.327 14.737 72.295-18.191 132.92-7.515" style="filter:url(#b);opacity:.3;paint-order:stroke fill markers;stroke-width:1.3229;stroke:#000"/><path d="m288.54 102.66s-39.812-2.649-107.61 18.564c-69.088 21.617-108.27 52.259-108.27 52.259s102.97-57.494 219.19-60.762zm148.49 62.512 5.1758-0.33761s-29.652-35.978-86.41-53.502c31.904 12.969 59.673 30.153 81.233 53.837zm8.4705 14.948c0.79583-1.3797 3.3646 4.3831 5.3149 6.804 0.0816 0.48342 0.21835 0.77842-0.91111 0.5457-0.094-0.49695-0.25738-0.64109-0.25738-0.64109s-2.7297-1.6244-3.5667-2.7765c-0.83787-1.1522-0.98634-3.1677-0.57821-3.9319zm69.654 171.26s6.2949-72.269-107.25-88.932c-14.391-2.1116-32.59-3.7366-50.999-3.7833-91.005 1.2032-94.323-104.96-25.746-110.32 28.42-2.3449 62.356 12.986 95.532 28.436-0.12414 4.1203 0.046 7.7816 2.754 11.165 2.7064 3.3823 13.102 7.0726 16.423 8.9786 3.3216 1.9067 13.963 8.6722 20.484 17.16 1.4143-2.6453 13.224-10.333 13.224-10.333s-2.8291 0.0614-9.4108-2.3983c-6.5828-2.4598-14.394-9.9025-14.578-10.333-0.18304-0.43086-0.3079-1.1072 1.2311-1.4149 1.1676-0.98343-1.4775-4.182-2.6463-5.35-1.168-1.1688-8.9803-14.453-9.1643-14.761-0.18323-0.30761-0.24564-0.61476-0.79957-0.98409-1.7228-0.55398-9.2882 0.79943-9.2882 0.79943s-11.636-5.7148-15.647-18.036c0.0584 2.158-1.9952 4.5144 0 9.4724-6.067-2.5665-11.278-6.9437-15.388-17.76-2.4465 6.1521 0 10.064 0 10.064s-14.286-3.992-16.572-17.167c-2.5087 5.9144 0 9.4716 0 9.4716s-23.291-12.152-61.99-12.329c-25.91-2.3765-31.303-47.955-28.904-55.627 0 0-37.371-19.696-110.93-28.397-73.564-8.7021-133.9-1.3114-133.9-1.3114s130.29-6.2527 234.67 36.004c3.5484 15.87 14.222 42.303 19.971 55.007-16.45 11.374-35.001 22.07-37.889 60.001-2.8875 37.931 29.723 71.296 70.165 72.325 38.401 2.0455 64.934 2.3361 97.092 19.009 30.696 16.973 55.864 68.691 58.356 115.2 2.6904-34.511-10.261-108.72-70.695-131.26 84.468 14.782 91.9 77.4 91.9 77.4zm-228.6-254.38-3.0394-9.8034s-50.149-8.9058-117.58-4.113c-67.429 4.7928-135.51 28.395-135.51 28.395s139.3-35.051 256.11-14.48" style="fill:#fff;paint-order:stroke fill markers;stroke-width:1.9268"/></svg>
